<svg width="51" height="51" viewBox="0 0 51 51" fill="none" xmlns="http://www.w3.org/2000/svg">
<mask id="mask0_24_121" style="mask-type:alpha" maskUnits="userSpaceOnUse" x="0" y="0" width="51" height="51">
<rect x="0.173157" width="50.17" height="50.17" rx="16" fill="#D9D9D9"/>
</mask>
<g mask="url(#mask0_24_121)">
<path d="M22.0421 7.71835C21.1762 7.71835 20.4743 7.01641 20.4743 6.15053V1.56781C20.4743 0.701933 21.1762 0 22.0421 0V0C22.908 0 23.6099 0.701934 23.6099 1.56781V6.15053C23.6099 7.01641 22.908 7.71835 22.0421 7.71835V7.71835ZM34.2826 11.8714C33.6686 12.4854 32.6725 12.4831 32.0613 11.8663V11.8663C31.4554 11.2548 31.4562 10.269 32.0632 9.65849L35.304 6.39878C35.9231 5.77602 36.9322 5.78047 37.5458 6.40866V6.40866C38.1481 7.02527 38.1424 8.01167 37.5328 8.62117L34.2826 11.8714ZM37.8007 23.477C36.9348 23.477 36.2329 22.775 36.2329 21.9092V21.9092C36.2329 21.0433 36.9348 20.3413 37.8007 20.3413H42.3834C43.2493 20.3413 43.9512 21.0433 43.9512 21.9092V21.9092C43.9512 22.775 43.2493 23.477 42.3834 23.477H37.8007ZM37.5541 37.3755C36.9332 37.9964 35.9266 37.9964 35.3057 37.3755L32.0814 34.1513C31.4657 33.5356 31.4657 32.5373 32.0814 31.9216V31.9216C32.6946 31.3085 33.6878 31.3056 34.3045 31.9151L37.5476 35.1205C38.1746 35.7403 38.1776 36.7521 37.5541 37.3755V37.3755ZM12.0395 11.9001C11.4293 12.5103 10.44 12.5103 9.82978 11.9001L6.55582 8.62578C5.93655 8.00645 5.94104 7.00101 6.56581 6.38724V6.38724C7.18538 5.77858 8.1806 5.78592 8.79112 6.40364L12.046 9.6969C12.6501 10.3081 12.6472 11.2924 12.0395 11.9001V11.9001ZM10.1026 36.6628H19.1077C20.1124 36.6628 20.9733 36.3043 21.6904 35.5873C22.4074 34.8703 22.7659 34.0094 22.7659 33.0046C22.7659 31.9994 22.4194 31.1418 21.7264 30.4318C21.0338 29.7214 20.1849 29.3662 19.1798 29.3662V29.3662C17.7606 29.3662 16.4786 28.5091 15.9318 27.1995V27.1995C15.4172 25.9961 14.6138 25.0413 13.5215 24.3351C12.4296 23.6289 11.2229 23.2758 9.90145 23.2758C8.06571 23.2758 6.508 23.9156 5.22831 25.1953C3.94863 26.475 3.30879 28.0329 3.30879 29.8689C3.30879 31.7583 3.96866 33.3629 5.28841 34.6827C6.60851 36.0028 8.21326 36.6628 10.1026 36.6628ZM10.1026 39.7984C7.35828 39.7984 5.01736 38.8295 3.07989 36.8917C1.14207 34.9542 0.173157 32.6133 0.173157 29.8689C0.173157 27.1646 1.11855 24.8671 3.00933 22.9763C4.90012 21.0855 7.19749 20.1401 9.90145 20.1401C11.8981 20.1401 13.7152 20.6931 15.3527 21.7989C15.4613 21.8722 15.5679 21.9471 15.6725 22.0237C18.2992 23.9457 21.4312 25.9323 23.8168 28.1464V28.1464C25.193 29.4233 25.8879 31.1002 25.9015 33.177C25.8583 35.0291 25.1815 36.5957 23.8712 37.8768C22.5605 39.1579 20.9727 39.7984 19.1077 39.7984H10.1026ZM27.3041 32.1393C26.555 32.5279 25.6798 32.0641 25.4589 31.2497V31.2497V31.2497C25.2222 30.3749 25.6897 29.4823 26.4544 28.9961C27.4325 28.3743 28.2598 27.5791 28.9363 26.6105C29.9146 25.2103 30.4038 23.6432 30.4038 21.9092C30.4038 19.6097 29.585 17.6412 27.9475 16.0037C26.31 14.3662 24.3415 13.5475 22.0421 13.5475C19.9116 13.5475 18.0556 14.2504 16.4742 15.6562C15.3098 16.6913 14.5132 17.9231 14.0842 19.3516C13.8353 20.1808 13.0126 20.7659 12.1648 20.5906V20.5906V20.5906C11.2497 20.4013 10.6485 19.514 10.9035 18.6149C11.5101 16.4756 12.6937 14.6631 14.4544 13.1775C16.6399 11.3337 19.1691 10.4118 22.0421 10.4118C25.2314 10.4118 27.9449 11.5307 30.1827 13.7685C32.4205 16.0063 33.5394 18.7199 33.5394 21.9092C33.5394 24.364 32.8365 26.5757 31.4307 28.5441C30.3312 30.0841 28.9556 31.2825 27.3041 32.1393Z" fill="white"/>
</g>
</svg>
