<svg width="51" height="51" viewBox="0 0 51 51" fill="none" xmlns="http://www.w3.org/2000/svg">
<mask id="mask0_24_138" style="mask-type:alpha" maskUnits="userSpaceOnUse" x="0" y="0" width="51" height="51">
<rect x="0.458679" y="0.829956" width="50.17" height="50.17" rx="16" fill="#D9D9D9"/>
</mask>
<g mask="url(#mask0_24_138)">
<path d="M25.5437 46.2965C24.6778 46.2965 23.9759 45.5945 23.9759 44.7287V43.5238C23.9759 41.0632 21.0091 39.8218 19.2567 41.5491L17.7647 43.0199C17.153 43.6229 16.1693 43.6193 15.562 43.012C14.9515 42.4015 14.9515 41.4117 15.562 40.8013L22.9601 33.4031C23.6105 32.7527 23.9759 31.8706 23.9759 30.9508C23.9759 29.0354 22.4231 27.4827 20.5078 27.4827C19.588 27.4827 18.7058 27.8481 18.0554 28.4985L10.6573 35.8966C10.0469 36.5071 9.0571 36.5071 8.44664 35.8966C7.83927 35.2892 7.83573 34.3056 8.43871 33.6939L9.90945 32.2018C11.6368 30.4495 10.3954 27.4827 7.9348 27.4827H6.72992C5.86404 27.4827 5.16211 26.7808 5.16211 25.9149C5.16211 25.049 5.86404 24.3471 6.72992 24.3471H7.9348C10.3954 24.3471 11.6368 21.3803 9.90944 19.628L8.43871 18.1359C7.83573 17.5242 7.83927 16.5406 8.44664 15.9332C9.05711 15.3227 10.0469 15.3227 10.6573 15.9332L18.0554 23.3313C18.7058 23.9817 19.588 24.3471 20.5078 24.3471C22.4231 24.3471 23.9759 22.7944 23.9759 20.879C23.9759 19.9592 23.6105 19.0771 22.9601 18.4267L15.562 11.0286C14.9515 10.4181 14.9515 9.42832 15.562 8.81785C16.1693 8.21049 17.153 8.20695 17.7647 8.80993L19.2567 10.2807C21.0091 12.008 23.9759 10.7666 23.9759 8.30602V7.10114C23.9759 6.23526 24.6778 5.53333 25.5437 5.53333C26.4096 5.53333 27.1115 6.23526 27.1115 7.10114V8.30602C27.1115 10.7666 30.0782 12.008 31.8306 10.2807L33.3227 8.80993C33.9344 8.20695 34.918 8.21049 35.5254 8.81785C36.1359 9.42832 36.1359 10.4181 35.5254 11.0286L28.1273 18.4267C27.4769 19.0771 27.1115 19.9592 27.1115 20.879C27.1115 22.7944 28.6642 24.3471 30.5796 24.3471C31.4994 24.3471 32.3815 23.9817 33.0319 23.3313L40.43 15.9332C41.0405 15.3227 42.0303 15.3227 42.6407 15.9332C43.2481 16.5406 43.2516 17.5242 42.6487 18.1359L41.1779 19.628C39.4506 21.3803 40.692 24.3471 43.1526 24.3471H44.3574C45.2233 24.3471 45.9253 25.049 45.9253 25.9149C45.9253 26.7808 45.2233 27.4827 44.3574 27.4827H43.1526C40.692 27.4827 39.4506 30.4495 41.1779 32.2018L42.6487 33.6939C43.2516 34.3056 43.2481 35.2892 42.6407 35.8966C42.0303 36.5071 41.0405 36.5071 40.43 35.8966L33.0319 28.4985C32.3815 27.8481 31.4994 27.4827 30.5796 27.4827C28.6642 27.4827 27.1115 29.0354 27.1115 30.9508C27.1115 31.8706 27.4769 32.7527 28.1273 33.4031L35.5254 40.8012C36.1359 41.4117 36.1359 42.4015 35.5254 43.012C34.918 43.6193 33.9344 43.6229 33.3227 43.0199L31.8306 41.5491C30.0782 39.8218 27.1115 41.0632 27.1115 43.5238V44.7287C27.1115 45.5945 26.4096 46.2965 25.5437 46.2965Z" fill="white"/>
</g>
</svg>
