<svg width="121" height="121" viewBox="0 0 121 121" fill="none" xmlns="http://www.w3.org/2000/svg">
<mask id="mask0_95_7" style="mask-type:alpha" maskUnits="userSpaceOnUse" x="0" y="0" width="121" height="121">
<rect width="121" height="121" fill="#D9D9D9"/>
</mask>
<g mask="url(#mask0_95_7)">
<path d="M20.1667 95.7917C18.7382 95.7917 17.5408 95.3085 16.5745 94.3422C15.6082 93.3759 15.125 92.1785 15.125 90.75C15.125 89.3215 15.6082 88.1241 16.5745 87.1578C17.5408 86.1915 18.7382 85.7083 20.1667 85.7083H70.5833C72.0118 85.7083 73.2092 86.1915 74.1755 87.1578C75.1418 88.1241 75.625 89.3215 75.625 90.75C75.625 92.1785 75.1418 93.3759 74.1755 94.3422C73.2092 95.3085 72.0118 95.7917 70.5833 95.7917H20.1667ZM90.75 95.7917C89.3215 95.7917 88.1241 95.3085 87.1578 94.3422C86.1915 93.3759 85.7083 92.1785 85.7083 90.75C85.7083 89.3215 86.1915 88.1241 87.1578 87.1578C88.1241 86.1915 89.3215 85.7083 90.75 85.7083H100.833C102.262 85.7083 103.459 86.1915 104.426 87.1578C105.392 88.1241 105.875 89.3215 105.875 90.75C105.875 92.1785 105.392 93.3759 104.426 94.3422C103.459 95.3085 102.262 95.7917 100.833 95.7917H90.75ZM20.1667 75.625C18.7382 75.625 17.5408 75.1419 16.5745 74.1755C15.6082 73.2092 15.125 72.0118 15.125 70.5833C15.125 69.1549 15.6082 67.9575 16.5745 66.9912C17.5408 66.0248 18.7382 65.5417 20.1667 65.5417H30.25C31.6785 65.5417 32.8759 66.0248 33.8422 66.9912C34.8085 67.9575 35.2917 69.1549 35.2917 70.5833C35.2917 72.0118 34.8085 73.2092 33.8422 74.1755C32.8759 75.1419 31.6785 75.625 30.25 75.625H20.1667ZM50.4167 75.625C48.9882 75.625 47.7908 75.1419 46.8245 74.1755C45.8582 73.2092 45.375 72.0118 45.375 70.5833C45.375 69.1549 45.8582 67.9575 46.8245 66.9912C47.7908 66.0248 48.9882 65.5417 50.4167 65.5417H100.833C102.262 65.5417 103.459 66.0248 104.426 66.9912C105.392 67.9575 105.875 69.1549 105.875 70.5833C105.875 72.0118 105.392 73.2092 104.426 74.1755C103.459 75.1419 102.262 75.625 100.833 75.625H50.4167ZM20.1667 55.4583C18.7382 55.4583 17.5408 54.9752 16.5745 54.0089C15.6082 53.0425 15.125 51.8452 15.125 50.4167C15.125 48.9882 15.6082 47.7908 16.5745 46.8245C17.5408 45.8582 18.7382 45.375 20.1667 45.375H75.625C77.0535 45.375 78.2509 45.8582 79.2172 46.8245C80.1835 47.7908 80.6667 48.9882 80.6667 50.4167C80.6667 51.8452 80.1835 53.0425 79.2172 54.0089C78.2509 54.9752 77.0535 55.4583 75.625 55.4583H20.1667ZM95.7917 55.4583C94.3632 55.4583 93.1658 54.9752 92.1995 54.0089C91.2332 53.0425 90.75 51.8452 90.75 50.4167C90.75 48.9882 91.2332 47.7908 92.1995 46.8245C93.1658 45.8582 94.3632 45.375 95.7917 45.375H100.833C102.262 45.375 103.459 45.8582 104.426 46.8245C105.392 47.7908 105.875 48.9882 105.875 50.4167C105.875 51.8452 105.392 53.0425 104.426 54.0089C103.459 54.9752 102.262 55.4583 100.833 55.4583H95.7917ZM20.1667 35.2917C18.7382 35.2917 17.5408 34.8085 16.5745 33.8422C15.6082 32.8759 15.125 31.6785 15.125 30.25C15.125 28.8215 15.6082 27.6241 16.5745 26.6578C17.5408 25.6915 18.7382 25.2083 20.1667 25.2083H45.375C46.8035 25.2083 48.0009 25.6915 48.9672 26.6578C49.9335 27.6241 50.4167 28.8215 50.4167 30.25C50.4167 31.6785 49.9335 32.8759 48.9672 33.8422C48.0009 34.8085 46.8035 35.2917 45.375 35.2917H20.1667ZM65.5417 35.2917C64.1132 35.2917 62.9158 34.8085 61.9495 33.8422C60.9832 32.8759 60.5 31.6785 60.5 30.25C60.5 28.8215 60.9832 27.6241 61.9495 26.6578C62.9158 25.6915 64.1132 25.2083 65.5417 25.2083H100.833C102.262 25.2083 103.459 25.6915 104.426 26.6578C105.392 27.6241 105.875 28.8215 105.875 30.25C105.875 31.6785 105.392 32.8759 104.426 33.8422C103.459 34.8085 102.262 35.2917 100.833 35.2917H65.5417Z" fill="white"/>
</g>
</svg>
