<svg width="82" height="82" viewBox="0 0 82 82" fill="none" xmlns="http://www.w3.org/2000/svg">
<mask id="mask0_21_105" style="mask-type:alpha" maskUnits="userSpaceOnUse" x="0" y="0" width="82" height="82">
<rect x="0.658936" y="0.129089" width="80.973" height="80.973" rx="16" fill="#D9D9D9"/>
</mask>
<g mask="url(#mask0_21_105)">
<path d="M10.684 68.5466C8.89114 68.8403 7.40686 67.3148 7.40686 65.4981C7.40686 63.6813 8.91595 62.3022 10.6578 61.786C10.9813 61.6901 11.2894 61.5779 11.582 61.4494C12.7348 60.9434 13.9016 60.3951 15.0824 59.8047C16.2633 59.2142 17.5707 58.68 19.0046 58.2021C20.4385 57.7241 22.1957 57.4851 24.2762 57.4851C26.413 57.4851 28.1702 57.7241 29.5479 58.2021C30.9256 58.68 32.2048 59.2142 33.3857 59.8047C34.5666 60.3951 35.7474 60.9434 36.9283 61.4494C38.1091 61.9555 39.5149 62.2086 41.1456 62.2086C42.7763 62.2086 44.1821 61.9555 45.3629 61.4494C46.5438 60.9434 47.7247 60.3951 48.9055 59.8047C50.0864 59.2142 51.3797 58.68 52.7855 58.2021C54.1913 57.7241 55.9344 57.4851 58.015 57.4851C60.1518 57.4851 61.9231 57.7241 63.3288 58.2021C64.7346 58.68 66.0279 59.2142 67.2088 59.8047C68.3896 60.3951 69.5705 60.9434 70.7514 61.4494C71.0349 61.5709 71.3297 61.6779 71.6359 61.7702C73.3753 62.2947 74.8844 63.6813 74.8844 65.4981C74.8844 67.3148 73.4001 68.8403 71.6072 68.5466C70.8473 68.4221 70.1543 68.2494 69.5283 68.0285C68.0944 67.5224 66.7871 66.9742 65.6062 66.3837C64.4253 65.7933 63.2726 65.2591 62.148 64.7811C61.0234 64.3032 59.6457 64.0642 58.015 64.0642C56.4405 64.0642 55.0769 64.3032 53.9242 64.7811C52.7714 65.2591 51.6187 65.7933 50.4659 66.3837C49.3132 66.9742 48.0199 67.5224 46.586 68.0285C45.1521 68.5346 43.3386 68.7876 41.1456 68.7876C38.9526 68.7876 37.1391 68.5346 35.7052 68.0285C34.2713 67.5224 32.978 66.9742 31.8253 66.3837C30.6725 65.7933 29.5339 65.2591 28.4092 64.7811C27.2846 64.3032 25.9069 64.0642 24.2762 64.0642C22.7018 64.0642 21.3382 64.3032 20.1854 64.7811C19.0327 65.2591 17.8659 65.7933 16.685 66.3837C15.5042 66.9742 14.1968 67.5224 12.7629 68.0285C12.1369 68.2494 11.4439 68.4221 10.684 68.5466ZM10.684 53.5329C8.89114 53.8266 7.40686 52.3011 7.40686 50.4843C7.40686 48.6676 8.91594 47.2885 10.6578 46.7722C10.9813 46.6764 11.2894 46.5642 11.582 46.4357C12.7348 45.9296 13.9016 45.3814 15.0824 44.7909C16.2633 44.2005 17.5707 43.6663 19.0046 43.1883C20.4385 42.7104 22.1957 42.4714 24.2762 42.4714C26.413 42.4714 28.1702 42.7104 29.5479 43.1883C30.9256 43.6663 32.2048 44.2005 33.3857 44.7909C34.5666 45.3814 35.7474 45.9296 36.9283 46.4357C38.1091 46.9418 39.5149 47.1948 41.1456 47.1948C42.7763 47.1948 44.1821 46.9418 45.3629 46.4357C46.5438 45.9296 47.7247 45.3814 48.9055 44.7909C50.0864 44.2005 51.3797 43.6663 52.7855 43.1883C54.1913 42.7104 55.9344 42.4714 58.015 42.4714C60.1518 42.4714 61.9231 42.7104 63.3288 43.1883C64.7346 43.6663 66.0279 44.2005 67.2088 44.7909C68.3896 45.3814 69.5705 45.9296 70.7514 46.4357C71.0349 46.5572 71.3297 46.6641 71.6359 46.7564C73.3753 47.281 74.8844 48.6676 74.8844 50.4843C74.8844 52.3011 73.4001 53.8266 71.6072 53.5329C70.8473 53.4084 70.1543 53.2357 69.5283 53.0148C68.0944 52.5087 66.7871 51.9604 65.6062 51.37C64.4253 50.7796 63.2726 50.2454 62.148 49.7674C61.0234 49.2894 59.6457 49.0504 58.015 49.0504C56.3843 49.0504 54.9925 49.2894 53.8398 49.7674C52.6871 50.2454 51.5343 50.7796 50.3816 51.37C49.2288 51.9604 47.9496 52.5087 46.5438 53.0148C45.138 53.5208 43.3386 53.7739 41.1456 53.7739C38.9526 53.7739 37.1391 53.5208 35.7052 53.0148C34.2713 52.5087 32.978 51.9604 31.8253 51.37C30.6725 50.7796 29.5339 50.2454 28.4092 49.7674C27.2846 49.2894 25.9069 49.0504 24.2762 49.0504C22.7018 49.0504 21.3382 49.2894 20.1854 49.7674C19.0327 50.2454 17.8659 50.7796 16.685 51.37C15.5042 51.9604 14.1968 52.5087 12.7629 53.0148C12.1369 53.2357 11.4439 53.4084 10.684 53.5329ZM10.684 38.5191C8.89114 38.8128 7.40686 37.2874 7.40686 35.4706C7.40686 33.6538 8.91594 32.2747 10.6578 31.7585C10.9813 31.6626 11.2894 31.5504 11.582 31.422C12.7348 30.9159 13.9016 30.3676 15.0824 29.7772C16.2633 29.1868 17.5707 28.6526 19.0046 28.1746C20.4385 27.6966 22.1957 27.4577 24.2762 27.4577C26.413 27.4577 28.1702 27.6966 29.5479 28.1746C30.9256 28.6526 32.2048 29.1868 33.3857 29.7772C34.5666 30.3676 35.7474 30.9159 36.9283 31.422C38.1091 31.928 39.5149 32.1811 41.1456 32.1811C42.7763 32.1811 44.1821 31.928 45.3629 31.422C46.5438 30.9159 47.7247 30.3676 48.9055 29.7772C50.0864 29.1868 51.3797 28.6526 52.7855 28.1746C54.1913 27.6966 55.9344 27.4577 58.015 27.4577C60.1518 27.4577 61.9231 27.6966 63.3288 28.1746C64.7346 28.6526 66.0279 29.1868 67.2088 29.7772C68.3896 30.3676 69.5705 30.9159 70.7514 31.422C71.0349 31.5435 71.3297 31.6504 71.6359 31.7427C73.3753 32.2672 74.8844 33.6538 74.8844 35.4706C74.8844 37.2874 73.4001 38.8128 71.6072 38.5191C70.8473 38.3947 70.1543 38.2219 69.5283 38.001C68.0944 37.4949 66.7871 36.9467 65.6062 36.3562C64.4253 35.7658 63.2726 35.2316 62.148 34.7537C61.0234 34.2757 59.6457 34.0367 58.015 34.0367C56.4405 34.0367 55.0769 34.2757 53.9242 34.7537C52.7714 35.2316 51.6187 35.7658 50.4659 36.3562C49.3132 36.9467 48.0199 37.4949 46.586 38.001C45.1521 38.5071 43.3386 38.7601 41.1456 38.7601C38.9526 38.7601 37.1391 38.5071 35.7052 38.001C34.2713 37.4949 32.978 36.9467 31.8253 36.3562C30.6725 35.7658 29.5339 35.2316 28.4092 34.7537C27.2846 34.2757 25.9069 34.0367 24.2762 34.0367C22.7018 34.0367 21.3382 34.2757 20.1854 34.7537C19.0327 35.2316 17.8659 35.7658 16.685 36.3562C15.5042 36.9467 14.1968 37.4949 12.7629 38.001C12.1369 38.2219 11.4439 38.3947 10.684 38.5191ZM10.684 23.5054C8.89114 23.7991 7.40686 22.2736 7.40686 20.4569C7.40686 18.6401 8.91594 17.261 10.6578 16.7447C10.9813 16.6489 11.2894 16.5367 11.582 16.4082C12.7348 15.9021 13.9016 15.3539 15.0824 14.7634C16.2633 14.173 17.5707 13.6388 19.0046 13.1609C20.4385 12.6829 22.1957 12.4439 24.2762 12.4439C26.413 12.4439 28.1702 12.6829 29.5479 13.1609C30.9256 13.6388 32.2048 14.173 33.3857 14.7634C34.5666 15.3539 35.7474 15.9021 36.9283 16.4082C38.1091 16.9143 39.5149 17.1673 41.1456 17.1673C42.7763 17.1673 44.1821 16.9143 45.3629 16.4082C46.5438 15.9021 47.7247 15.3539 48.9055 14.7634C50.0864 14.173 51.3797 13.6388 52.7855 13.1609C54.1913 12.6829 55.9344 12.4439 58.015 12.4439C60.1518 12.4439 61.9231 12.6829 63.3288 13.1609C64.7346 13.6388 66.0279 14.173 67.2088 14.7634C68.3896 15.3539 69.5705 15.9021 70.7514 16.4082C71.0349 16.5297 71.3297 16.6366 71.6359 16.729C73.3753 17.2535 74.8844 18.6401 74.8844 20.4569C74.8844 22.2736 73.4001 23.7991 71.6072 23.5054C70.8473 23.3809 70.1543 23.2082 69.5283 22.9873C68.0944 22.4812 66.7871 21.9329 65.6062 21.3425C64.4253 20.7521 63.2726 20.2179 62.148 19.7399C61.0234 19.2619 59.6457 19.023 58.015 19.023C56.4405 19.023 55.0769 19.2619 53.9242 19.7399C52.7714 20.2179 51.6187 20.7521 50.4659 21.3425C49.3132 21.9329 48.0199 22.4812 46.586 22.9873C45.1521 23.4933 43.3386 23.7464 41.1456 23.7464C38.9526 23.7464 37.1391 23.4933 35.7052 22.9873C34.2713 22.4812 32.978 21.9329 31.8253 21.3425C30.6725 20.7521 29.5339 20.2179 28.4092 19.7399C27.2846 19.2619 25.9069 19.023 24.2762 19.023C22.7018 19.023 21.3382 19.2619 20.1854 19.7399C19.0327 20.2179 17.8659 20.7521 16.685 21.3425C15.5042 21.9329 14.1968 22.4812 12.7629 22.9873C12.1369 23.2082 11.4439 23.3809 10.684 23.5054Z" fill="white"/>
</g>
</svg>
