<svg width="51" height="52" viewBox="0 0 51 52" fill="none" xmlns="http://www.w3.org/2000/svg">
<mask id="mask0_24_125" style="mask-type:alpha" maskUnits="userSpaceOnUse" x="0" y="0" width="51" height="52">
<rect x="0.315918" y="0.886475" width="50.17" height="50.17" rx="16" fill="#D9D9D9"/>
</mask>
<g mask="url(#mask0_24_125)">
<path d="M29.3366 46.3652C28.9478 46.577 28.5504 46.6104 28.1445 46.4655C27.7386 46.3209 27.4298 46.0544 27.218 45.6659L23.8811 38.9922C23.6697 38.6038 23.6362 38.2066 23.7808 37.8007C23.9254 37.3945 24.1921 37.0856 24.5809 36.8741C24.9694 36.6623 25.37 36.6322 25.7829 36.7837C26.1954 36.9349 26.5076 37.2048 26.7194 37.5932L30.0562 44.2465C30.2677 44.6353 30.2978 45.0327 30.1466 45.4386C29.9951 45.8445 29.7251 46.1533 29.3366 46.3652ZM41.899 46.3652C41.5105 46.577 41.1133 46.6104 40.7074 46.4655C40.3012 46.3209 39.9922 46.0544 39.7803 45.6659L36.444 38.9922C36.2322 38.6038 36.1987 38.2066 36.3437 37.8007C36.4883 37.3945 36.7548 37.0856 37.1433 36.8741C37.5321 36.6623 37.9327 36.6322 38.3453 36.7837C38.7581 36.9349 39.0703 37.2048 39.2818 37.5932L42.6186 44.2465C42.8304 44.6353 42.8606 45.0327 42.709 45.4386C42.5578 45.8445 42.2878 46.1533 41.899 46.3652ZM16.7941 46.3652C16.4053 46.577 16.0046 46.6104 15.5921 46.4655C15.1792 46.3209 14.8671 46.0544 14.6556 45.6659L11.3188 38.9922C11.1069 38.6038 11.0768 38.2066 11.2284 37.8007C11.3796 37.3945 11.6496 37.0856 12.0384 36.8741C12.4269 36.6623 12.824 36.6322 13.2299 36.7837C13.6362 36.9349 13.9452 37.2048 14.157 37.5932L17.4933 44.2465C17.7052 44.6353 17.7386 45.0327 17.5937 45.4386C17.4491 45.8445 17.1826 46.1533 16.7941 46.3652ZM15.994 33.8106C12.9576 33.8106 10.3694 32.7407 8.22912 30.6008C6.08923 28.4605 5.01929 25.8723 5.01929 22.8359C5.01929 20.0379 5.95388 17.6059 7.82306 15.5398C8.17665 15.149 8.54655 14.789 8.93276 14.4598C12.0309 11.8192 15.7261 9.38068 19.2122 7.2785C21.0786 6.15281 23.1415 5.58997 25.4009 5.58997C28.4696 5.58997 31.1222 6.58832 33.3586 8.58501C33.8088 8.98701 34.2223 9.409 34.599 9.85096C37.2025 12.9058 40.706 15.9313 43.4265 18.8824C44.9971 20.5854 45.7824 22.6001 45.7824 24.9263C45.7824 27.392 44.9181 29.489 43.1893 31.2175C41.4608 32.9462 39.3638 33.8106 36.8982 33.8106H15.994ZM15.994 30.675H36.8982C38.4956 30.675 39.853 30.1162 40.9703 28.9985C42.088 27.8811 42.6468 26.5238 42.6468 24.9263C42.6468 23.3289 42.088 21.9715 40.9703 20.8542C39.853 19.7365 38.4956 19.1777 36.8982 19.1777H35.853C34.9871 19.1777 34.2851 18.4758 34.2851 17.6099C34.2851 15.163 33.4162 13.0705 31.6784 11.3323C29.9402 9.59451 27.8477 8.72559 25.4009 8.72559C23.6212 8.72559 21.9998 9.20865 20.5365 10.1748C19.0732 11.1409 17.9731 12.4373 17.2362 14.064L17.2198 14.1041C16.9986 14.6441 16.473 14.9969 15.8895 14.9969C13.7562 15.0665 11.9337 15.8571 10.422 17.3684C8.9106 18.8802 8.15491 20.7026 8.15491 22.8359C8.15491 25.004 8.91931 26.8527 10.4481 28.3818C11.9772 29.9106 13.8259 30.675 15.994 30.675Z" fill="white"/>
</g>
</svg>
