<svg width="191" height="191" viewBox="0 0 191 191" fill="none" xmlns="http://www.w3.org/2000/svg">
<mask id="mask0_21_82" style="mask-type:alpha" maskUnits="userSpaceOnUse" x="0" y="0" width="191" height="191">
<rect x="0.865479" y="0.844604" width="189.269" height="189.269" rx="16" fill="#D9D9D9"/>
</mask>
<g mask="url(#mask0_21_82)">
<path d="M95.5023 41.9438C92.2358 41.9438 89.5877 39.2957 89.5877 36.0291V18.7406C89.5877 15.474 92.2358 12.8259 95.5023 12.8259C98.7689 12.8259 101.417 15.474 101.417 18.7406V36.0291C101.417 39.2957 98.7689 41.9438 95.5023 41.9438ZM141.57 57.7218C139.311 59.9803 135.65 59.9803 133.391 57.7218C131.159 55.4892 131.129 51.8784 133.326 49.61L145.486 37.0499C147.8 34.6603 151.626 34.643 153.961 37.0115C156.247 39.3298 156.234 43.058 153.932 45.3599L141.57 57.7218ZM154.952 101.394C151.686 101.394 149.038 98.7458 149.038 95.4792C149.038 92.2127 151.686 89.5646 154.952 89.5646H172.241C175.508 89.5646 178.156 92.2127 178.156 95.4792C178.156 98.7458 175.508 101.394 172.241 101.394H154.952ZM95.5023 178.133C92.2358 178.133 89.5877 175.484 89.5877 172.218V155.004C89.5877 151.738 92.2358 149.09 95.5023 149.09C98.7689 149.09 101.417 151.738 101.417 155.004V172.218C101.417 175.484 98.7689 178.133 95.5023 178.133ZM57.691 57.5967C55.4524 59.7694 51.894 59.775 49.6486 57.6092L37.1284 45.533C34.7164 43.2066 34.7127 39.3443 37.1201 37.0131C39.4409 34.766 43.1341 34.7923 45.4225 37.0724L57.7451 49.3502C60.0345 51.6313 60.0101 55.3459 57.691 57.5967ZM153.908 153.739C151.55 156.208 147.611 156.215 145.243 153.755L133.276 141.322C131.109 139.069 131.152 135.494 133.373 133.294C135.587 131.101 139.149 131.085 141.383 133.258L153.753 145.291C156.114 147.588 156.183 151.358 153.908 153.739ZM18.7636 101.394C15.4971 101.394 12.849 98.7458 12.849 95.4792C12.849 92.2127 15.4971 89.5646 18.7637 89.5646H36.0522C39.3188 89.5646 41.9668 92.2127 41.9668 95.4792C41.9668 98.7458 39.3188 101.394 36.0522 101.394H18.7636ZM45.5165 153.973C43.1601 156.329 39.3277 156.289 37.0208 153.884C34.7804 151.549 34.8188 147.851 37.1073 145.563L49.1699 133.501C51.4851 131.186 55.2215 131.132 57.6032 133.378C59.9909 135.658 60.0348 139.456 57.7004 141.79L45.5165 153.973ZM95.5201 138.853C83.4765 138.853 73.2337 134.638 64.7915 126.208C56.3493 117.777 52.1282 107.541 52.1282 95.497C52.1282 83.4535 56.3434 73.2106 64.7737 64.7684C73.2041 56.3262 83.441 52.1051 95.4846 52.1051C107.528 52.1051 117.771 56.3203 126.213 64.7507C134.655 73.181 138.876 83.418 138.876 95.4615C138.876 107.505 134.661 117.748 126.231 126.19C117.801 134.632 107.564 138.853 95.5201 138.853ZM95.5023 127.024C104.177 127.024 111.603 123.935 117.781 117.758C123.958 111.58 127.047 104.154 127.047 95.4792C127.047 86.8044 123.958 79.3783 117.781 73.2007C111.603 67.0232 104.177 63.9344 95.5023 63.9344C86.8275 63.9344 79.4013 67.0232 73.2238 73.2007C67.0463 79.3783 63.9575 86.8044 63.9575 95.4792C63.9575 104.154 67.0463 111.58 73.2238 117.758C79.4013 123.935 86.8275 127.024 95.5023 127.024Z" fill="white"/>
</g>
</svg>
