<svg width="51" height="52" viewBox="0 0 51 52" fill="none" xmlns="http://www.w3.org/2000/svg">
<mask id="mask0_24_129" style="mask-type:alpha" maskUnits="userSpaceOnUse" x="0" y="0" width="51" height="52">
<rect x="0.315918" y="0.886475" width="50.17" height="50.17" rx="16" fill="#D9D9D9"/>
</mask>
<g mask="url(#mask0_24_129)">
<path d="M18.0747 47.76C17.5204 47.76 17.1328 47.2117 17.3176 46.6891L18.0518 44.6133C18.3482 43.775 17.7264 42.8956 16.8373 42.8956C15.9465 42.8956 15.3246 42.0131 15.6241 41.1741L16.9493 37.4634C17.2323 36.6709 17.9829 36.1419 18.8244 36.1419H19.219C20.4614 36.1419 21.2991 37.412 20.81 38.554L20.4459 39.4045C20.1292 40.1438 20.6716 40.9661 21.4759 40.9661C22.4094 40.9661 22.9336 42.0407 22.359 42.7764L18.7076 47.4512C18.5554 47.6461 18.3219 47.76 18.0747 47.76ZM31.1088 45.8305C30.5491 45.8305 30.1568 45.2779 30.3414 44.7495L30.7059 43.7062C31.0091 42.8383 30.3649 41.9308 29.4455 41.9308C28.5224 41.9308 27.8778 41.0164 28.1882 40.1469L29.1472 37.4603C29.4294 36.6697 30.1782 36.1419 31.0176 36.1419H31.9377C32.9314 36.1419 33.6001 37.1596 33.2057 38.0717L33.0244 38.4911C32.7157 39.2049 33.2391 40.0014 34.0168 40.0014C34.9318 40.0014 35.4331 41.067 34.8498 41.7719L31.7351 45.5359C31.5807 45.7225 31.3511 45.8305 31.1088 45.8305ZM15.994 33.8106C12.9576 33.8106 10.3694 32.7407 8.22912 30.6008C6.08923 28.4605 5.01929 25.8722 5.01929 22.8359C5.01929 20.0379 5.95388 17.6059 7.82306 15.5398C8.17665 15.149 8.54655 14.789 8.93276 14.4598C12.0309 11.8192 15.7261 9.38068 19.2122 7.2785C21.0786 6.15281 23.1415 5.58997 25.4009 5.58997C28.4696 5.58997 31.1222 6.58831 33.3586 8.58501C33.8088 8.98701 34.2223 9.40899 34.599 9.85096C37.2025 12.9058 40.706 15.9313 43.4265 18.8824C44.9971 20.5854 45.7824 22.6 45.7824 24.9263C45.7824 27.392 44.9181 29.489 43.1893 31.2174C41.4608 32.9462 39.3638 33.8106 36.8982 33.8106H15.994ZM15.994 30.675H36.8982C38.4956 30.675 39.853 30.1161 40.9703 28.9985C42.088 27.8811 42.6468 26.5238 42.6468 24.9263C42.6468 23.3289 42.088 21.9715 40.9703 20.8542C39.853 19.7365 38.4956 19.1777 36.8982 19.1777H35.853C34.9871 19.1777 34.2851 18.4757 34.2851 17.6099C34.2851 15.163 33.4162 13.0705 31.6784 11.3323C29.9402 9.59451 27.8477 8.72559 25.4009 8.72559C23.6212 8.72559 21.9998 9.20865 20.5365 10.1748C19.0732 11.1409 17.9731 12.4373 17.2362 14.064L17.2198 14.1041C16.9986 14.6441 16.473 14.9968 15.8895 14.9968C13.7562 15.0665 11.9337 15.8571 10.422 17.3684C8.9106 18.8801 8.15491 20.7026 8.15491 22.8359C8.15491 25.004 8.91931 26.8527 10.4481 28.3818C11.9772 29.9106 13.8259 30.675 15.994 30.675Z" fill="white"/>
</g>
</svg>
