<svg width="66" height="57" viewBox="0 0 66 57" fill="none" xmlns="http://www.w3.org/2000/svg">
<path d="M31.3623 56.0234C28.633 56.0234 26.3131 55.0682 24.4026 53.1577C23.2943 52.0494 22.5075 50.8033 22.0421 49.4194C21.4656 47.705 23.0032 46.198 24.812 46.198H25.5007C26.9292 46.198 28.0187 47.5215 29.0288 48.5315C29.6565 49.1593 30.4343 49.4731 31.3623 49.4731C32.2903 49.4731 33.0681 49.1593 33.6958 48.5315C34.3236 47.9038 34.6374 47.1259 34.6374 46.198C34.6374 45.27 34.3236 44.4922 33.6958 43.8644C33.0681 43.2367 32.2903 42.9228 31.3623 42.9228H3.52356C1.71475 42.9228 0.248413 41.4565 0.248413 39.6477C0.248413 37.8389 1.71475 36.3725 3.52356 36.3725H31.3623C34.0916 36.3725 36.4115 37.3278 38.322 39.2383C40.2325 41.1488 41.1877 43.4687 41.1877 46.198C41.1877 48.9273 40.2325 51.2472 38.322 53.1577C36.4115 55.0682 34.0916 56.0234 31.3623 56.0234ZM3.52356 23.272C1.71475 23.272 0.248413 21.8056 0.248413 19.9968C0.248413 18.188 1.71475 16.7217 3.52356 16.7217H44.4629C45.8821 16.7217 47.0557 16.2577 47.9837 15.3297C48.9116 14.4018 49.3756 13.2282 49.3756 11.809C49.3756 10.3897 48.9116 9.21613 47.9837 8.28818C47.0557 7.36022 45.8821 6.89624 44.4629 6.89624C43.0437 6.89624 41.8701 7.36022 40.9421 8.28818C40.7945 8.43578 40.6586 8.58961 40.5345 8.74965C39.4259 10.1789 38.0838 11.809 36.275 11.809C34.4662 11.809 32.9394 10.3147 33.4177 8.57026C33.9239 6.7241 34.89 5.08803 36.316 3.66203C38.5267 1.45131 41.2423 0.345947 44.4629 0.345947C47.6834 0.345947 50.3991 1.45131 52.6098 3.66203C54.8205 5.87276 55.9259 8.5884 55.9259 11.809C55.9259 15.0295 54.8205 17.7452 52.6098 19.9559C50.3991 22.1666 47.6834 23.272 44.4629 23.272H3.52356ZM57.527 49.0553C55.7826 49.5336 54.2883 48.0068 54.2883 46.198C54.2883 44.3892 55.9183 43.0471 57.3476 41.9385C57.5077 41.8144 57.6615 41.6785 57.8091 41.5309C58.7371 40.6029 59.201 39.4294 59.201 38.0101C59.201 36.5909 58.7371 35.4173 57.8091 34.4893C56.8811 33.5614 55.7076 33.0974 54.2883 33.0974H3.52356C1.71475 33.0974 0.248413 31.6311 0.248413 29.8223C0.248413 28.0134 1.71475 26.5471 3.52356 26.5471H54.2883C57.5089 26.5471 60.2245 27.6525 62.4352 29.8632C64.646 32.0739 65.7513 34.7896 65.7513 38.0101C65.7513 41.2307 64.646 43.9463 62.4352 46.157C61.0093 47.583 59.3732 48.5491 57.527 49.0553Z" fill="white"/>
</svg>
