<svg width="51" height="52" viewBox="0 0 51 52" fill="none" xmlns="http://www.w3.org/2000/svg">
<mask id="mask0_24_133" style="mask-type:alpha" maskUnits="userSpaceOnUse" x="0" y="0" width="51" height="52">
<rect x="0.315918" y="0.886475" width="50.17" height="50.17" rx="16" fill="#D9D9D9"/>
</mask>
<g mask="url(#mask0_24_133)">
<path d="M24.7818 47.921C23.3698 47.921 22.1998 46.6001 23.2724 45.6817C24.4726 44.6545 25.9235 43.5048 25.9235 41.925V34.7749C25.9235 33.8341 25.2716 33.048 24.5068 32.5C23.808 32.0003 22.8623 31.7857 22.1349 32.2428L18.386 34.5988C18.0324 34.8103 17.6418 34.9462 17.2143 35.0064C16.7868 35.0667 16.3439 35.0299 15.8854 34.8962L6.47847 32.2309C5.68271 32.0058 5.03625 31.5609 4.53908 30.8961C4.04191 30.231 3.79332 29.478 3.79332 28.6369C3.79332 27.5945 4.15113 26.7155 4.86675 25.9999C5.58237 25.2842 6.46139 24.9264 7.50382 24.9264H21.5055C22.5736 24.9264 23.5312 24.3358 24.384 23.6926C25.1992 23.0769 25.9235 22.2273 25.9235 21.2058V15.7124C25.9235 15.2811 26.0066 14.8677 26.1728 14.4723C26.339 14.0772 26.5843 13.7349 26.9087 13.4453L34.0683 6.75599C34.6934 6.14733 35.4205 5.80154 36.2497 5.71862C37.0785 5.6357 37.8464 5.812 38.5533 6.2475C39.4233 6.79171 39.9874 7.56063 40.2455 8.55427C40.5037 9.54757 40.3647 10.4811 39.8285 11.3549L32.6415 23.2357C32.0693 24.1816 32.2908 25.4129 32.6207 26.4681C32.9571 27.544 33.6259 28.6413 34.7208 28.9092L38.8319 29.9152C39.2552 30.0278 39.6363 30.208 39.9753 30.4561C40.3143 30.7038 40.5831 31.0113 40.7817 31.3785L45.5374 39.9696C45.9527 40.7093 46.105 41.4864 45.9942 42.3009C45.8834 43.1159 45.5233 43.8221 44.914 44.4196C44.1879 45.1457 43.3157 45.5054 42.2973 45.4988C41.2789 45.4921 40.3999 45.1256 39.6602 44.3992L29.6408 34.3797C29.5471 34.2861 29.4031 34.272 29.2802 34.3213C29.1574 34.3706 29.0592 34.4785 29.0592 34.6109V41.925C29.0592 43.5048 30.5101 44.6545 31.7103 45.6817C32.7829 46.6001 31.613 47.921 30.2009 47.921H24.7818ZM11.2906 11.3387C10.4247 11.3387 9.7228 10.6368 9.7228 9.7709C9.7228 8.90502 10.4247 8.20309 11.2906 8.20309H19.6523C20.5182 8.20309 21.2201 8.90502 21.2201 9.7709C21.2201 10.6368 20.5182 11.3387 19.6523 11.3387H11.2906ZM30.6565 14.22C29.6376 15.172 29.0592 16.504 29.0592 17.8985V22.8808C29.0592 22.9095 29.0867 22.9285 29.1073 22.9484C29.1303 22.9715 29.1662 22.9475 29.183 22.9195L37.1595 9.70453C37.2292 9.56482 37.2467 9.4164 37.2118 9.25927C37.177 9.10179 37.0899 8.98821 36.9505 8.91853C36.846 8.84885 36.7153 8.83143 36.5586 8.86627C36.4018 8.90111 36.2885 8.95337 36.2189 9.02305L30.6565 14.22ZM5.01935 19.7004C4.15347 19.7004 3.45154 18.9985 3.45154 18.1326C3.45154 17.2667 4.15347 16.5648 5.01935 16.5648H11.2906C12.1565 16.5648 12.8584 17.2667 12.8584 18.1326C12.8584 18.9985 12.1565 19.7004 11.2906 19.7004H5.01935ZM27.4877 30.3537C28.1361 30.3537 28.6806 30.1344 29.1214 29.6957C29.5624 29.2571 29.783 28.7137 29.783 28.0657C29.783 27.4173 29.5637 26.8728 29.125 26.4321C28.6864 25.991 28.143 25.7704 27.495 25.7704C26.8466 25.7704 26.3021 25.9898 25.8614 26.4284C25.4203 26.867 25.1997 27.4104 25.1997 28.0584C25.1997 28.7068 25.4191 29.2513 25.8577 29.6921C26.2963 30.1331 26.8397 30.3537 27.4877 30.3537ZM14.4209 31.2528C15.9151 31.6839 17.5216 31.4677 18.8487 30.657L21.8998 28.7932C22.0494 28.7018 22.1169 28.5269 22.1169 28.3516C22.1169 28.1917 21.9873 28.0621 21.8274 28.0621H7.50904C7.33136 28.0621 7.19025 28.1143 7.08573 28.2188C6.98121 28.3234 6.92895 28.4627 6.92895 28.6369C6.92895 28.7763 6.96379 28.8982 7.03347 29.0028C7.10315 29.1073 7.20767 29.177 7.34703 29.2118L14.4209 31.2528ZM39.4873 35.4758C38.5908 33.8569 37.0537 32.6906 35.2533 32.2631L31.8808 31.4622C31.756 31.4326 31.6225 31.4687 31.5515 31.5755C31.4884 31.6704 31.4882 31.8018 31.5688 31.8824L41.8515 42.1719C41.9585 42.2795 42.099 42.3333 42.2732 42.3333C42.4474 42.3333 42.5868 42.2814 42.6913 42.1776C42.7958 42.0734 42.8568 41.9609 42.8742 41.84C42.8917 41.7188 42.8655 41.5888 42.7958 41.4501L39.4873 35.4758ZM9.20019 43.7402C8.33431 43.7402 7.63238 43.0383 7.63238 42.1724C7.63238 41.3065 8.33431 40.6046 9.20019 40.6046H15.4714C16.3373 40.6046 17.0393 41.3065 17.0393 42.1724C17.0393 43.0383 16.3373 43.7402 15.4714 43.7402H9.20019Z" fill="white"/>
</g>
</svg>
